# xmcd
#
# Track frame offsets:
# 150
# 23837
# 50625
# 76502
# 119175
# 137225
# 156015
# 171377
# 194680
#
# Disc length: 3657 seconds
#
#
# Revision: 0
# Processed by: cddbd v1.5.1PL2 Copyright (c) Steve Scherf et al.
# Submitted via: FreeRIP 2.942 
#
DISCID=7d0e4709
DTITLE=Várious - Natu Nobilis Blues Festival 2003
DYEAR=2003
DGENRE=Blues
TTITLE0=In Your Face - Robson Fernandes Quarteto
TTITLE1=Você Não Sabe Quem Eu Sou - Andy Rodrigues E Banda
TTITLE2=Antes de Te Ver - Baseado em Blues
TTITLE3=Any Fool Will Do - Kenny Neal and The Neal Brothers Blues Band
TTITLE4=Help Me - Natu Nobilis Blues Band
TTITLE5=Milonga Para As Missões - Renato Borghetti and Natu Nobilis Blues Band
TTITLE6=Dead Man At Your Door - Jungle Jam
TTITLE7=Love Changin' Blues - John Hammond
TTITLE8=Jamming In POA - Kenny Neal And The Neal Brothers Blues Band
EXTD=
EXTT0=
EXTT1=
EXTT2=
EXTT3=
EXTT4=
EXTT5=
EXTT6=
EXTT7=
EXTT8=
PLAYORDER=
